<?xml version="1.0" encoding="UTF-8"?>
<!DOCTYPE svg PUBLIC "-//W3C//DTD SVG 1.1//EN" "http://www.w3.org/Graphics/SVG/1.1/DTD/svg11.dtd">
<svg xmlns="http://www.w3.org/2000/svg" version="1.1" width="102px" height="70px" style="shape-rendering:geometricPrecision; text-rendering:geometricPrecision; image-rendering:optimizeQuality; fill-rule:evenodd; clip-rule:evenodd" xmlns:xlink="http://www.w3.org/1999/xlink">
<g><path style="opacity:0.789" fill="#3c4ba7" d="M 47.5,-0.5 C 50.1667,-0.5 52.8333,-0.5 55.5,-0.5C 61.6543,6.23029 60.4876,11.2303 52,14.5C 45.1149,13.2619 42.7816,9.26189 45,2.5C 46.045,1.62656 46.8783,0.626561 47.5,-0.5 Z"/></g>
<g><path style="opacity:0.799" fill="#3c4ba7" d="M 101.5,64.5 C 101.5,65.5 101.5,66.5 101.5,67.5C 99.3023,67.4088 98.9689,68.0755 100.5,69.5C 93.8333,69.5 87.1667,69.5 80.5,69.5C 80.5,68.1667 80.5,66.8333 80.5,65.5C 75.8141,65.162 71.1475,64.9953 66.5,65C 68.1412,66.129 69.1412,67.629 69.5,69.5C 64.1667,69.5 58.8333,69.5 53.5,69.5C 53.8134,66.7531 53.48,64.0865 52.5,61.5C 51.8333,61.1667 51.1667,60.8333 50.5,60.5C 49.5159,63.4281 49.1826,66.4281 49.5,69.5C 44.5,69.5 39.5,69.5 34.5,69.5C 37.0462,65.9253 38.7129,61.9253 39.5,57.5C 35.0533,56.8001 30.72,55.9668 26.5,55C 23.4399,59.3483 22.1066,64.1816 22.5,69.5C 16.1667,69.5 9.83333,69.5 3.5,69.5C 7.68798,63.2896 12.3547,57.2896 17.5,51.5C 11.7101,48.6042 5.71005,46.2709 -0.5,44.5C -0.5,43.1667 -0.5,41.8333 -0.5,40.5C 6.13637,43.1632 12.803,45.8299 19.5,48.5C 29.5604,37.6117 39.3937,26.6117 49,15.5C 49.5,15.6667 50,15.8333 50.5,16C 49.8333,29.6667 49.1667,43.3333 48.5,57C 50.5292,57.6811 52.5292,58.0144 54.5,58C 53.8333,44 53.1667,30 52.5,16C 53,15.8333 53.5,15.6667 54,15.5C 67.9484,30.6946 81.4484,46.3613 94.5,62.5C 96.5098,64.1713 98.8431,64.838 101.5,64.5 Z M 34.5,46.5 C 40.6815,46.5042 42.6815,49.5042 40.5,55.5C 36.7615,54.3171 33.0949,52.9838 29.5,51.5C 30.8818,49.4514 32.5484,47.7847 34.5,46.5 Z M 63.5,46.5 C 65.9892,46.2978 68.3225,46.7978 70.5,48C 74.6388,52.1313 77.9721,56.798 80.5,62C 74.1321,61.9964 67.7987,61.3297 61.5,60C 62.3081,59.6924 62.9747,59.1924 63.5,58.5C 60.9427,54.4348 60.9427,50.4348 63.5,46.5 Z"/></g>
</svg>
